<?xml version="1.0" standalone="no"?>
<!DOCTYPE svg PUBLIC "-//W3C//DTD SVG 20010904//EN"
 "http://www.w3.org/TR/2001/REC-SVG-20010904/DTD/svg10.dtd">
<svg version="1.0" xmlns="http://www.w3.org/2000/svg"
 width="960.000000pt" height="960.000000pt" viewBox="0 0 960.000000 960.000000"
 preserveAspectRatio="xMidYMid meet">
<metadata>
Created by potrace 1.14, written by Peter Selinger 2001-2017
</metadata>
<g transform="translate(0.000000,960.000000) scale(0.100000,-0.100000)"
fill="#000000" stroke="none">
<path d="M0 4800 l0 -4800 4800 0 4800 0 0 4800 0 4800 -4800 0 -4800 0 0
-4800z m8099 3482 c-331 -343 -540 -615 -610 -795 -46 -120 -45 -170 8 -277
152 -308 147 -715 -14 -1145 -167 -446 -512 -813 -933 -991 -81 -34 -89 -40
-68 -48 94 -39 217 -107 274 -152 80 -63 111 -78 190 -94 150 -31 323 18 538
153 122 76 137 84 101 54 -16 -14 -950 -701 -2075 -1526 l-2045 -1501 -856 0
-856 0 52 213 c28 116 143 582 255 1033 l204 821 1000 736 1001 735 435 5
c459 5 550 12 704 58 154 46 306 142 391 247 64 79 120 199 149 318 58 241 41
382 -61 495 -35 38 -35 40 -17 53 10 8 539 397 1174 865 635 468 1157 851
1159 851 2 0 -43 -48 -100 -108z m-2109 -326 c208 -22 379 -50 528 -87 128
-31 303 -89 360 -118 l33 -17 -983 -724 c-541 -398 -999 -735 -1018 -749 -19
-14 30 42 110 124 153 158 207 224 240 296 25 56 25 86 0 99 -12 7 -143 9
-382 8 l-363 -3 -122 -494 c-85 -346 -127 -499 -140 -511 -14 -13 -3075 -2265
-3233 -2378 l-35 -26 35 36 c19 19 98 95 175 169 680 653 1206 1341 1392 1823
20 53 155 575 334 1295 165 663 304 1223 310 1244 l10 38 1297 -4 c1122 -3
1318 -6 1452 -21z m1858 -3073 c-8 -10 -68 -79 -134 -153 -167 -190 -320 -371
-393 -467 -63 -84 -172 -296 -226 -443 -15 -41 -33 -88 -41 -105 -7 -16 -25
-70 -39 -120 -75 -252 -202 -503 -356 -707 -81 -107 -282 -308 -384 -385 -392
-294 -891 -464 -1553 -528 -89 -9 -184 -20 -211 -25 -198 -37 -512 -142 -766
-255 -217 -97 -575 -276 -715 -358 -76 -44 10 21 390 298 217 158 406 298 420
311 26 24 4012 2954 4019 2954 2 0 -3 -8 -11 -17z"/>
<path d="M3945 4478 c-11 -29 -325 -1311 -325 -1325 0 -23 1045 -13 1169 11
449 88 695 351 741 792 23 218 -50 382 -203 457 -140 68 -234 77 -860 77 -405
0 -519 -3 -522 -12z"/>
</g>
</svg>
